<svg width="48" height="48" viewBox="0 0 48 48" fill="none" xmlns="http://www.w3.org/2000/svg">
<path d="M0.656939 29.9261C0.809034 38.5849 10.0772 45.2043 15.9996 46.3465C18.1733 46.7828 18.675 46.9134 19.1854 46.9791C19.6278 47.0361 20.0768 47.0444 21.6267 47.1611C24.4215 47.6884 27.3823 47.699 30.2592 47.4272C38.4522 47.4272 50.8178 36.3862 47.424 19.4087C47.1341 17.4047 46.5829 15.4798 45.7565 13.7752C43.6327 9.39457 40.1672 5.51021 35.8957 3.66018C35.8127 3.61652 35.7276 3.57164 35.6405 3.52568C33.4784 2.38469 30.0635 0.58254 25.2046 0.58252C19.7138 0.582497 12.8053 1.73653 8.17976 5.47513C1.23999 11.0842 -1.34302 20.0539 0.656939 29.9261Z" fill="#BAEBFF"/>
<rect x="9.31445" y="23.5654" width="27.2382" height="4.39325" transform="rotate(-15 9.31445 23.5654)" fill="#1C2026"/>
<path d="M0.656939 29.9261C0.809034 38.5849 10.0772 45.2043 15.9996 46.3465C18.1733 46.7828 18.675 46.9134 19.1854 46.9791C19.6278 47.0361 20.0768 47.0444 21.6267 47.1611C24.4215 47.6884 27.3823 47.699 30.2592 47.4272C38.4522 47.4272 50.8178 36.3862 47.424 19.4087C47.1341 17.4047 46.5829 15.4798 45.7565 13.7752C43.6327 9.39457 40.1672 5.51021 35.8957 3.66018C35.8127 3.61652 35.7276 3.57164 35.6405 3.52568C33.4784 2.38469 30.0635 0.58254 25.2046 0.58252C19.7138 0.582497 12.8053 1.73653 8.17976 5.47513C1.23999 11.0842 -1.34302 20.0539 0.656939 29.9261Z" fill="#FFD06D"/>
<path d="M23.25 10.7754C15.3791 10.7754 9 17.0238 9 24.7346C9 32.4448 15.3791 38.6938 23.25 38.6938C31.1209 38.6938 37.5 32.4448 37.5 24.7346C37.5 17.0243 31.1209 10.7754 23.25 10.7754Z" fill="#1C2026"/>
<path d="M14.3913 30.5H22.2501V28.5945H17.6209V28.5191L19.2304 26.942C21.4965 24.875 22.1048 23.8415 22.1048 22.5873C22.1048 20.6764 20.5438 19.3254 18.1808 19.3254C15.8662 19.3254 14.2782 20.7087 14.2836 22.8726H16.4959C16.4906 21.8176 17.158 21.1716 18.1646 21.1716C19.1335 21.1716 19.8548 21.7745 19.8548 22.7434C19.8548 23.6208 19.3165 24.2237 18.3153 25.1872L14.3913 28.8206V30.5ZM23.5353 28.5622H28.8265V30.5H31.055V28.5622H32.4222V26.6944H31.055V19.4761H28.1375L23.5353 26.7267V28.5622ZM28.8696 26.6944H25.8822V26.6083L28.7835 22.0167H28.8696V26.6944Z" fill="white"/>
</svg>
